<svg width="1440" height="2560" viewBox="0 0 1440 2560" fill="none" xmlns="http://www.w3.org/2000/svg">
  <defs>
    <filter id="grain" x="-20%" y="-20%" width="140%" height="140%">
      <feTurbulence type="fractalNoise" baseFrequency="0.75" numOctaves="3" seed="19" stitchTiles="stitch"/>
      <feColorMatrix type="saturate" values="0"/>
      <feComponentTransfer>
        <feFuncA type="table" tableValues="0 0.08"/>
      </feComponentTransfer>
    </filter>
    <pattern id="paper-fibers" patternUnits="userSpaceOnUse" width="180" height="180">
      <rect width="180" height="180" fill="transparent"/>
      <path d="M28 30L42 40" stroke="#7A665E" stroke-opacity="0.08" stroke-width="2" stroke-linecap="square"/>
      <path d="M108 42L122 30" stroke="#7A665E" stroke-opacity="0.08" stroke-width="2" stroke-linecap="square"/>
      <path d="M142 102L156 116" stroke="#7A665E" stroke-opacity="0.08" stroke-width="2" stroke-linecap="square"/>
      <path d="M54 132L68 146" stroke="#7A665E" stroke-opacity="0.08" stroke-width="2" stroke-linecap="square"/>
      <path d="M132 152L146 138" stroke="#7A665E" stroke-opacity="0.08" stroke-width="2" stroke-linecap="square"/>
      <circle cx="70" cy="70" r="1.8" fill="#65534A" fill-opacity="0.08"/>
      <circle cx="136" cy="92" r="1.6" fill="#65534A" fill-opacity="0.08"/>
      <circle cx="36" cy="108" r="1.5" fill="#65534A" fill-opacity="0.08"/>
    </pattern>
    <pattern id="dots-pink" patternUnits="userSpaceOnUse" width="34" height="34">
      <circle cx="8" cy="8" r="4.2" fill="#DE4D92" fill-opacity="0.18"/>
      <circle cx="24" cy="16" r="2.8" fill="#DE4D92" fill-opacity="0.13"/>
      <circle cx="14" cy="28" r="2.2" fill="#DE4D92" fill-opacity="0.13"/>
    </pattern>
    <pattern id="dots-violet" patternUnits="userSpaceOnUse" width="34" height="34">
      <circle cx="8" cy="8" r="4" fill="#8A63F0" fill-opacity="0.17"/>
      <circle cx="24" cy="16" r="2.8" fill="#8A63F0" fill-opacity="0.12"/>
      <circle cx="14" cy="28" r="2.1" fill="#8A63F0" fill-opacity="0.12"/>
    </pattern>
    <pattern id="dots-cyan" patternUnits="userSpaceOnUse" width="34" height="34">
      <circle cx="8" cy="8" r="4" fill="#5ED6EA" fill-opacity="0.16"/>
      <circle cx="24" cy="16" r="2.8" fill="#5ED6EA" fill-opacity="0.11"/>
      <circle cx="14" cy="28" r="2.1" fill="#5ED6EA" fill-opacity="0.11"/>
    </pattern>
    <linearGradient id="paper" x1="720" y1="0" x2="720" y2="2560" gradientUnits="userSpaceOnUse">
      <stop stop-color="#FFFDF8"/>
      <stop offset="1" stop-color="#F5ECDD"/>
    </linearGradient>
    <radialGradient id="spotlight" cx="0" cy="0" r="1" gradientUnits="userSpaceOnUse" gradientTransform="translate(736 1080) rotate(90) scale(1100 620)">
      <stop stop-color="#FFFDF9"/>
      <stop offset="0.46" stop-color="#FFF7E7"/>
      <stop offset="1" stop-color="#FFF7E7" stop-opacity="0"/>
    </radialGradient>
    <linearGradient id="pink-cloud" x1="0" y1="0" x2="660" y2="420" gradientUnits="userSpaceOnUse">
      <stop stop-color="#FF92C8"/>
      <stop offset="1" stop-color="#F8B1D2"/>
    </linearGradient>
    <linearGradient id="violet-cloud" x1="850" y1="0" x2="1440" y2="650" gradientUnits="userSpaceOnUse">
      <stop stop-color="#CC9AFF"/>
      <stop offset="1" stop-color="#8D58FF"/>
    </linearGradient>
    <linearGradient id="cyan-sweep" x1="0" y1="1020" x2="540" y2="1520" gradientUnits="userSpaceOnUse">
      <stop stop-color="#9AF0F3"/>
      <stop offset="1" stop-color="#56D7E9"/>
    </linearGradient>
    <linearGradient id="gold-sweep" x1="930" y1="1440" x2="1490" y2="1940" gradientUnits="userSpaceOnUse">
      <stop stop-color="#FFE17A"/>
      <stop offset="1" stop-color="#EFB445"/>
    </linearGradient>
    <linearGradient id="navy-bottom" x1="720" y1="1840" x2="720" y2="2560" gradientUnits="userSpaceOnUse">
      <stop stop-color="#2A2955"/>
      <stop offset="1" stop-color="#131833"/>
    </linearGradient>
    <linearGradient id="pink-ribbon" x1="114" y1="0" x2="530" y2="0" gradientUnits="userSpaceOnUse">
      <stop stop-color="#FF5DAE"/>
      <stop offset="1" stop-color="#F28FC1"/>
    </linearGradient>
    <linearGradient id="teal-ribbon" x1="0" y1="0" x2="420" y2="0" gradientUnits="userSpaceOnUse">
      <stop stop-color="#6DE5EE"/>
      <stop offset="1" stop-color="#3FB8D0"/>
    </linearGradient>
    <linearGradient id="spark-gold" x1="0" y1="0" x2="1" y2="1">
      <stop stop-color="#FFEE93"/>
      <stop offset="1" stop-color="#F0A01F"/>
    </linearGradient>
  </defs>

  <rect width="1440" height="2560" fill="url(#paper)"/>
  <rect width="1440" height="2560" fill="url(#paper-fibers)"/>
  <rect width="1440" height="2560" fill="url(#spotlight)"/>
  <rect width="1440" height="2560" filter="url(#grain)" opacity="0.62"/>

  <g opacity="0.98">
    <ellipse cx="178" cy="250" rx="430" ry="310" fill="url(#pink-cloud)"/>
    <ellipse cx="238" cy="250" rx="330" ry="232" fill="url(#dots-pink)"/>
    <path d="M0 438C128 350 260 308 398 312C352 360 302 430 248 520C194 610 112 760 0 972V438Z" fill="#FF5AA9"/>
    <path d="M0 516C108 452 224 422 350 426C306 474 262 542 214 628C166 714 94 844 0 1016V516Z" fill="#FFF3F8"/>
    <path d="M96 124L234 104L390 116L528 164L610 224L480 226L332 214L194 220L96 252V124Z" fill="#FFFDF9"/>
    <path d="M120 196L220 178L332 180L432 202L376 224L282 228L176 228L120 196Z" fill="#FFDDEA"/>
  </g>

  <g opacity="0.98">
    <ellipse cx="1238" cy="312" rx="390" ry="286" fill="url(#violet-cloud)"/>
    <ellipse cx="1182" cy="338" rx="308" ry="220" fill="url(#dots-violet)"/>
    <path d="M1008 168C1130 96 1268 68 1422 84L1440 92V274C1320 242 1192 246 1054 306C1008 328 956 362 900 410L864 380C910 292 958 224 1008 168Z" fill="#A36AFF"/>
    <path d="M1124 168C1220 150 1328 156 1440 194V236C1342 216 1238 214 1128 228L1124 168Z" fill="#F4EBFF"/>
    <path d="M1228 466C1310 456 1382 466 1440 496V542C1372 522 1296 520 1212 534L1228 466Z" fill="#BE97FF"/>
  </g>

  <g opacity="0.92">
    <rect x="-112" y="986" width="720" height="180" rx="90" transform="rotate(-28 -112 986)" fill="url(#teal-ribbon)"/>
    <rect x="-64" y="1038" width="620" height="140" rx="70" transform="rotate(-28 -64 1038)" fill="url(#dots-cyan)"/>
    <rect x="980" y="1364" width="560" height="176" rx="88" transform="rotate(29 980 1364)" fill="url(#gold-sweep)"/>
    <rect x="1064" y="1414" width="472" height="132" rx="66" transform="rotate(29 1064 1414)" fill="#FFF4CF"/>
  </g>

  <g opacity="0.94">
    <path d="M0 1838C188 1756 394 1712 618 1712C884 1712 1108 1776 1290 1910C1178 2038 1032 2110 850 2126C612 2148 368 2096 116 1968C74 1946 36 1922 0 1898V1838Z" fill="#F5A0C6"/>
    <path d="M0 1884C170 1818 362 1788 576 1792C808 1796 1018 1858 1204 1980C1118 2068 990 2120 820 2130C598 2144 364 2098 118 1982C74 1960 34 1936 0 1912V1884Z" fill="url(#dots-pink)"/>
  </g>

  <g opacity="0.98">
    <path d="M0 1996C144 1960 294 1942 450 1942C650 1942 842 1972 1026 2032C1180 2082 1318 2162 1440 2272V2560H0V1996Z" fill="url(#navy-bottom)"/>
    <path d="M0 2072C142 2042 286 2028 432 2028C638 2028 832 2060 1014 2126C1176 2184 1318 2264 1440 2368V2560H0V2072Z" fill="#3C2F72"/>
    <path d="M0 2168C118 2136 250 2120 396 2120C590 2120 770 2152 938 2216C1106 2280 1274 2382 1440 2522V2560H0V2168Z" fill="url(#dots-violet)"/>
    <path d="M84 2242C286 2218 482 2224 674 2260C794 2282 912 2316 1028 2362L990 2400C892 2364 786 2338 672 2320C470 2286 274 2290 84 2330V2242Z" fill="#FFF8E8"/>
  </g>

  <g opacity="0.86">
    <rect x="148" y="174" width="230" height="88" rx="16" transform="rotate(-14 148 174)" fill="url(#pink-ribbon)"/>
    <rect x="1028" y="210" width="250" height="96" rx="16" transform="rotate(12 1028 210)" fill="#6BDAE8"/>
    <rect x="128" y="2144" width="260" height="94" rx="18" transform="rotate(-8 128 2144)" fill="#FFD76F"/>
    <rect x="1032" y="2084" width="236" height="90" rx="18" transform="rotate(10 1032 2084)" fill="#FF79B8"/>
  </g>

  <g fill="#EC4A93" opacity="0.92">
    <path d="M238 680C262 648 310 636 346 660C384 636 436 648 456 688C478 728 460 782 414 812L346 864L280 814C236 784 216 728 238 680Z"/>
    <path d="M1120 1742C1140 1714 1178 1704 1210 1726C1242 1704 1282 1714 1298 1746C1316 1778 1302 1818 1268 1844L1210 1888L1152 1846C1118 1818 1102 1778 1120 1742Z"/>
  </g>

  <g fill="#FFD6E8" opacity="0.92">
    <path d="M276 700L326 688L372 698L350 720L302 718L276 700Z"/>
    <path d="M1150 1760L1180 1752L1210 1760L1196 1776L1164 1774L1150 1760Z"/>
  </g>

  <g opacity="0.98">
    <path d="M740 270L764 330L824 354L772 378L750 438L708 392L642 374L692 338L700 280L740 270Z" fill="url(#spark-gold)"/>
    <path d="M1198 620L1220 678L1278 700L1226 726L1204 784L1164 740L1100 720L1150 686L1158 630L1198 620Z" fill="url(#spark-gold)"/>
    <path d="M182 1416L206 1478L268 1502L214 1528L192 1588L150 1542L84 1522L134 1488L142 1428L182 1416Z" fill="url(#spark-gold)"/>
    <path d="M978 2208L1000 2268L1060 2292L1008 2316L986 2374L946 2330L882 2310L932 2276L940 2218L978 2208Z" fill="url(#spark-gold)"/>
  </g>

  <g fill="#8C5FFF" opacity="0.9">
    <path d="M1118 892L1148 922L1118 952L1088 922L1118 892Z"/>
    <path d="M220 1682L250 1712L220 1742L190 1712L220 1682Z"/>
    <path d="M1256 2028L1286 2058L1256 2088L1226 2058L1256 2028Z"/>
  </g>

  <g fill="#61D8E9" opacity="0.84">
    <path d="M978 998L1020 1012L1006 1054L964 1040L978 998Z"/>
    <path d="M336 1960L378 1976L364 2018L322 2002L336 1960Z"/>
  </g>

  <g fill="#E8C7AF" opacity="0.34">
    <circle cx="714" cy="728" r="4"/>
    <circle cx="634" cy="936" r="4"/>
    <circle cx="826" cy="1128" r="4"/>
    <circle cx="696" cy="1328" r="4"/>
    <circle cx="812" cy="1518" r="4"/>
    <circle cx="664" cy="1712" r="4"/>
  </g>

  <rect width="1440" height="2560" fill="url(#paper-fibers)" opacity="0.42"/>
</svg>
