<?xml version="1.0" encoding="UTF-8"?>
<svg xmlns="http://www.w3.org/2000/svg" width="360" height="540" viewBox="0 0 360 540">
  <defs>
    <linearGradient id="bg" x1="0%" y1="0%" x2="100%" y2="100%"><stop offset="0%" stop-color="#3e4358"/><stop offset="100%" stop-color="#d44f74"/></linearGradient>
    <pattern id="h" width="18" height="18" patternUnits="userSpaceOnUse" patternTransform="rotate(22)"><rect width="18" height="18" fill="none"/><rect x="-3" width="8" height="18" fill="#141019" fill-opacity="0.24"/></pattern>
    <pattern id="foil" width="124" height="54" patternUnits="userSpaceOnUse" patternTransform="rotate(-14)"><rect width="124" height="54" fill="#2a1f38"/><text x="8" y="36" font-family="Anton, Oswald, Impact, sans-serif" font-size="30" fill="#ffe9c5">ACTION</text></pattern>
  </defs>
  <rect width="360" height="540" rx="30" fill="url(#bg)"/><rect width="360" height="540" rx="30" fill="url(#h)"/>
  <path d="M-38 316 L404 136 L432 216 L-10 396 Z" fill="url(#foil)" opacity="0.9"/>
  <circle cx="180" cy="230" r="118" fill="#fff6de" fill-opacity="0.9" stroke="#15121e" stroke-width="10"/>
  <path d="M180 146 L226 202 L206 288 L154 288 L134 202 Z" fill="#fff6de" stroke="#15121e" stroke-width="10"/>
  <rect x="46" y="360" width="268" height="66" rx="14" fill="#111018" fill-opacity="0.84"/>
  <text x="180" y="404" text-anchor="middle" font-family="Anton, Oswald, Impact, sans-serif" font-size="46" fill="#ffe7c2">ACTION</text>
  <rect x="70" y="438" width="220" height="46" rx="10" fill="#fff6de"/><text x="180" y="468" text-anchor="middle" font-family="Barlow Condensed, Arial, sans-serif" font-size="20" font-weight="800" fill="#1a131d" letter-spacing="1">SPECIAL</text>
  <rect x="12" y="12" width="336" height="516" rx="26" fill="none" stroke="#15121e" stroke-width="10"/>
</svg>