<svg width="2000" height="2000" viewBox="0 0 2000 2000" fill="none" xmlns="http://www.w3.org/2000/svg">
  <defs>
    <filter id="grain" x="-20%" y="-20%" width="140%" height="140%">
      <feTurbulence type="fractalNoise" baseFrequency="0.82" numOctaves="3" seed="11" stitchTiles="stitch"/>
      <feColorMatrix type="saturate" values="0"/>
      <feComponentTransfer>
        <feFuncA type="table" tableValues="0 0.16"/>
      </feComponentTransfer>
    </filter>
  </defs>

  <rect width="2000" height="2000" filter="url(#grain)" opacity="0.8"/>

  <g fill="#3A2D25" opacity="0.11">
    <circle cx="124" cy="96" r="2.4"/>
    <circle cx="364" cy="182" r="1.9"/>
    <circle cx="602" cy="78" r="2.2"/>
    <circle cx="864" cy="210" r="1.8"/>
    <circle cx="1118" cy="116" r="2.2"/>
    <circle cx="1368" cy="202" r="1.7"/>
    <circle cx="1608" cy="88" r="2.1"/>
    <circle cx="1842" cy="172" r="1.9"/>
    <circle cx="182" cy="474" r="2.1"/>
    <circle cx="470" cy="582" r="1.8"/>
    <circle cx="804" cy="486" r="2.2"/>
    <circle cx="1140" cy="574" r="1.8"/>
    <circle cx="1496" cy="478" r="2.1"/>
    <circle cx="1818" cy="596" r="2"/>
    <circle cx="108" cy="892" r="2.3"/>
    <circle cx="414" cy="984" r="1.8"/>
    <circle cx="726" cy="876" r="2"/>
    <circle cx="1062" cy="972" r="1.8"/>
    <circle cx="1384" cy="870" r="2.1"/>
    <circle cx="1714" cy="978" r="1.7"/>
    <circle cx="244" cy="1326" r="2"/>
    <circle cx="534" cy="1434" r="1.8"/>
    <circle cx="852" cy="1328" r="2.2"/>
    <circle cx="1174" cy="1454" r="1.9"/>
    <circle cx="1508" cy="1336" r="2.1"/>
    <circle cx="1834" cy="1442" r="1.8"/>
    <circle cx="168" cy="1754" r="2.2"/>
    <circle cx="478" cy="1868" r="1.8"/>
    <circle cx="798" cy="1762" r="2"/>
    <circle cx="1116" cy="1876" r="1.8"/>
    <circle cx="1440" cy="1768" r="2.1"/>
    <circle cx="1764" cy="1884" r="1.8"/>
  </g>

  <g stroke="#5A4A3B" stroke-opacity="0.11" stroke-width="2" stroke-linecap="round">
    <path d="M94 242L110 252"/>
    <path d="M412 322L426 338"/>
    <path d="M918 238L938 246"/>
    <path d="M1368 300L1384 286"/>
    <path d="M1748 246L1766 256"/>
    <path d="M274 744L292 758"/>
    <path d="M702 696L716 712"/>
    <path d="M1280 720L1302 732"/>
    <path d="M1638 808L1652 792"/>
    <path d="M188 1188L208 1200"/>
    <path d="M566 1108L580 1126"/>
    <path d="M942 1234L958 1244"/>
    <path d="M1386 1140L1404 1154"/>
    <path d="M1740 1224L1756 1210"/>
    <path d="M306 1640L322 1654"/>
    <path d="M742 1562L760 1572"/>
    <path d="M1184 1674L1200 1660"/>
    <path d="M1588 1592L1606 1606"/>
    <path d="M1828 1714L1842 1700"/>
  </g>
</svg>
