<svg width="2000" height="2000" viewBox="0 0 2000 2000" fill="none" xmlns="http://www.w3.org/2000/svg">
  <defs>
    <linearGradient id="paperWash" x1="1028" y1="0" x2="980" y2="2000" gradientUnits="userSpaceOnUse">
      <stop stop-color="#FFFDF7"/>
      <stop offset="0.52" stop-color="#F7F1E6"/>
      <stop offset="1" stop-color="#EEE6D6"/>
    </linearGradient>
    <radialGradient id="paperLift" cx="0" cy="0" r="1" gradientUnits="userSpaceOnUse" gradientTransform="translate(1030 972) rotate(90) scale(1040 1120)">
      <stop offset="0.38" stop-color="#FFFDF9"/>
      <stop offset="1" stop-color="#F3E9D8" stop-opacity="0"/>
    </radialGradient>
    <linearGradient id="pinkBrush" x1="30" y1="32" x2="642" y2="544" gradientUnits="userSpaceOnUse">
      <stop stop-color="#FFB8D4"/>
      <stop offset="0.5" stop-color="#F87AAD"/>
      <stop offset="1" stop-color="#F2C3D7"/>
    </linearGradient>
    <linearGradient id="violetBrush" x1="1336" y1="28" x2="2028" y2="520" gradientUnits="userSpaceOnUse">
      <stop stop-color="#CDB7FF"/>
      <stop offset="0.54" stop-color="#9E84FF"/>
      <stop offset="1" stop-color="#E6DAFF"/>
    </linearGradient>
    <linearGradient id="tealBrush" x1="-62" y1="1310" x2="794" y2="1970" gradientUnits="userSpaceOnUse">
      <stop stop-color="#C7F0E6"/>
      <stop offset="0.44" stop-color="#72DBCD"/>
      <stop offset="1" stop-color="#E7FAF6"/>
    </linearGradient>
    <linearGradient id="yellowBrush" x1="1348" y1="1372" x2="2038" y2="2018" gradientUnits="userSpaceOnUse">
      <stop stop-color="#FFE39A"/>
      <stop offset="0.45" stop-color="#FFC94B"/>
      <stop offset="1" stop-color="#FFF0BA"/>
    </linearGradient>
    <linearGradient id="tealPinkBar" x1="824" y1="116" x2="1180" y2="116" gradientUnits="userSpaceOnUse">
      <stop stop-color="#49D8C5"/>
      <stop offset="0.54" stop-color="#FF60AB"/>
      <stop offset="1" stop-color="#F6B0CB"/>
    </linearGradient>
    <linearGradient id="centerSweep" x1="140" y1="942" x2="632" y2="1048" gradientUnits="userSpaceOnUse">
      <stop stop-color="#FFE59B"/>
      <stop offset="0.52" stop-color="#FFB8D4"/>
      <stop offset="1" stop-color="#68DECE"/>
    </linearGradient>
    <pattern id="pinkDots" patternUnits="userSpaceOnUse" width="26" height="26">
      <circle cx="7" cy="7" r="3.2" fill="#9C254E" opacity="0.28"/>
      <circle cx="19" cy="14" r="2.6" fill="#9C254E" opacity="0.18"/>
      <circle cx="11" cy="21" r="1.8" fill="#9C254E" opacity="0.22"/>
    </pattern>
    <pattern id="violetDots" patternUnits="userSpaceOnUse" width="26" height="26">
      <circle cx="6" cy="8" r="3" fill="#2B1B4D" opacity="0.18"/>
      <circle cx="18" cy="15" r="2.5" fill="#2B1B4D" opacity="0.12"/>
      <circle cx="13" cy="22" r="1.6" fill="#2B1B4D" opacity="0.14"/>
    </pattern>
    <pattern id="tealDots" patternUnits="userSpaceOnUse" width="28" height="28">
      <circle cx="8" cy="8" r="3.2" fill="#144D4A" opacity="0.17"/>
      <circle cx="20" cy="15" r="2.2" fill="#144D4A" opacity="0.12"/>
      <circle cx="14" cy="24" r="1.8" fill="#144D4A" opacity="0.12"/>
    </pattern>
    <pattern id="yellowDots" patternUnits="userSpaceOnUse" width="26" height="26">
      <circle cx="7" cy="9" r="3" fill="#6A4200" opacity="0.17"/>
      <circle cx="19" cy="14" r="2.2" fill="#6A4200" opacity="0.11"/>
      <circle cx="11" cy="22" r="1.6" fill="#6A4200" opacity="0.12"/>
    </pattern>
    <pattern id="dryBrush" patternUnits="userSpaceOnUse" width="64" height="64" patternTransform="rotate(-14)">
      <rect width="64" height="64" fill="transparent"/>
      <rect x="0" y="6" width="64" height="6" fill="#FFF8F0" opacity="0.24"/>
      <rect x="0" y="18" width="44" height="4" fill="#FFF8F0" opacity="0.12"/>
      <rect x="12" y="30" width="52" height="5" fill="#FFF8F0" opacity="0.18"/>
      <rect x="0" y="43" width="36" height="3" fill="#FFF8F0" opacity="0.14"/>
      <rect x="18" y="54" width="46" height="4" fill="#FFF8F0" opacity="0.12"/>
    </pattern>
    <pattern id="printScratch" patternUnits="userSpaceOnUse" width="84" height="84" patternTransform="rotate(18)">
      <rect width="84" height="84" fill="transparent"/>
      <rect x="0" y="8" width="84" height="2" fill="#170F10" opacity="0.05"/>
      <rect x="6" y="32" width="68" height="2" fill="#170F10" opacity="0.04"/>
      <rect x="10" y="58" width="74" height="2" fill="#170F10" opacity="0.04"/>
    </pattern>
    <filter id="roughWide" x="-12%" y="-12%" width="124%" height="124%" color-interpolation-filters="sRGB">
      <feTurbulence type="fractalNoise" baseFrequency="0.015 0.03" numOctaves="2" seed="8" result="noise"/>
      <feDisplacementMap in="SourceGraphic" in2="noise" scale="24" xChannelSelector="R" yChannelSelector="G"/>
    </filter>
    <filter id="roughTight" x="-10%" y="-10%" width="120%" height="120%" color-interpolation-filters="sRGB">
      <feTurbulence type="fractalNoise" baseFrequency="0.03 0.05" numOctaves="2" seed="5" result="noise"/>
      <feDisplacementMap in="SourceGraphic" in2="noise" scale="11" xChannelSelector="R" yChannelSelector="B"/>
    </filter>
  </defs>

  <rect width="2000" height="2000" fill="url(#paperWash)"/>
  <rect width="2000" height="2000" fill="url(#paperLift)"/>

  <g opacity="0.28">
    <path d="M36 181C154 132 268 136 406 198" stroke="#2F2327" stroke-width="14" stroke-linecap="round"/>
    <path d="M42 244C168 194 292 202 418 268" stroke="#2F2327" stroke-width="8" stroke-linecap="round"/>
    <path d="M1500 146C1662 120 1812 160 1944 270" stroke="#171117" stroke-width="15" stroke-linecap="round"/>
    <path d="M1484 210C1642 188 1774 224 1884 312" stroke="#171117" stroke-width="8" stroke-linecap="round"/>
    <path d="M34 1450C184 1330 338 1274 506 1270" stroke="#171117" stroke-width="15" stroke-linecap="round"/>
    <path d="M76 1522C210 1432 338 1390 468 1390" stroke="#171117" stroke-width="8" stroke-linecap="round"/>
    <path d="M1516 1498C1674 1406 1818 1382 1966 1420" stroke="#171117" stroke-width="15" stroke-linecap="round"/>
    <path d="M1534 1570C1674 1498 1798 1478 1914 1500" stroke="#171117" stroke-width="8" stroke-linecap="round"/>
  </g>

  <g filter="url(#roughWide)">
    <path d="M-180 38C70 -72 308 -44 464 58C600 148 664 306 650 498C502 416 366 392 200 400C50 406 -80 444 -196 532L-180 38Z" fill="url(#pinkBrush)" opacity="0.96"/>
    <path d="M24 56C232 6 426 22 554 110C662 184 706 302 690 450C540 352 396 328 220 334C140 336 72 346 18 364L24 56Z" fill="url(#dryBrush)" opacity="0.28"/>
    <path d="M-132 112C88 12 318 0 490 94C596 152 668 274 670 408C534 336 392 304 214 312C70 318 -48 352 -146 430L-132 112Z" fill="url(#pinkDots)" opacity="0.48"/>
    <path d="M132 418C234 358 350 332 482 350" stroke="#FFFFFF" stroke-opacity="0.36" stroke-width="28" stroke-linecap="round"/>
    <path d="M72 470C206 402 338 382 470 394" stroke="#B63663" stroke-opacity="0.26" stroke-width="16" stroke-linecap="round"/>
  </g>

  <g filter="url(#roughWide)">
    <path d="M1444 24C1620 2 1822 32 2000 136V508C1864 414 1718 352 1550 330C1462 270 1426 160 1444 24Z" fill="url(#violetBrush)" opacity="0.95"/>
    <path d="M1480 66C1644 54 1822 94 1968 192V412C1840 330 1714 282 1562 258C1490 216 1462 148 1480 66Z" fill="url(#dryBrush)" opacity="0.22"/>
    <path d="M1480 84C1636 56 1802 88 1946 176V406C1824 324 1700 280 1562 258C1498 218 1470 154 1480 84Z" fill="url(#violetDots)" opacity="0.42"/>
    <path d="M1544 162C1680 150 1800 176 1904 242" stroke="#FFFFFF" stroke-opacity="0.3" stroke-width="24" stroke-linecap="round"/>
    <path d="M1528 244C1666 236 1788 266 1896 340" stroke="#4F2A8D" stroke-opacity="0.28" stroke-width="18" stroke-linecap="round"/>
  </g>

  <g filter="url(#roughWide)">
    <path d="M-122 1418C58 1292 258 1218 494 1214C646 1280 738 1400 778 1582C574 1512 388 1502 186 1558C84 1588 -18 1636 -118 1716L-122 1418Z" fill="url(#tealBrush)" opacity="0.96"/>
    <path d="M-32 1442C160 1340 332 1288 524 1288C640 1338 714 1430 750 1554C558 1496 380 1494 184 1548C110 1568 38 1594 -34 1626L-32 1442Z" fill="url(#dryBrush)" opacity="0.24"/>
    <path d="M-60 1460C98 1344 298 1278 520 1278C646 1334 718 1424 748 1534C568 1484 386 1488 176 1548C90 1572 12 1602 -64 1642L-60 1460Z" fill="url(#tealDots)" opacity="0.36"/>
    <path d="M70 1542C212 1456 354 1418 512 1426" stroke="#FFFFFF" stroke-opacity="0.33" stroke-width="28" stroke-linecap="round"/>
    <path d="M64 1630C230 1540 378 1510 532 1516" stroke="#13776E" stroke-opacity="0.22" stroke-width="16" stroke-linecap="round"/>
  </g>

  <g filter="url(#roughWide)">
    <path d="M1442 1424C1620 1374 1814 1374 2000 1442V1972H1494C1420 1888 1368 1762 1344 1592C1360 1510 1394 1452 1442 1424Z" fill="url(#yellowBrush)" opacity="0.98"/>
    <path d="M1474 1450C1636 1418 1812 1424 1978 1484V1902H1532C1466 1838 1420 1744 1396 1618C1408 1544 1434 1488 1474 1450Z" fill="url(#dryBrush)" opacity="0.24"/>
    <path d="M1486 1462C1642 1428 1810 1436 1966 1494V1888H1538C1480 1838 1438 1756 1418 1648C1426 1578 1450 1510 1486 1462Z" fill="url(#yellowDots)" opacity="0.34"/>
    <path d="M1500 1598C1648 1528 1792 1506 1938 1518" stroke="#FFF4D0" stroke-opacity="0.34" stroke-width="26" stroke-linecap="round"/>
    <path d="M1520 1708C1648 1650 1772 1628 1898 1630" stroke="#8F5D00" stroke-opacity="0.18" stroke-width="16" stroke-linecap="round"/>
  </g>

  <g filter="url(#roughTight)">
    <path d="M1520 552C1628 522 1728 524 1826 570C1856 616 1862 660 1840 704C1724 664 1618 656 1520 682C1480 652 1472 600 1520 552Z" fill="#F6B4D6" opacity="0.74"/>
    <path d="M114 912C218 870 328 858 444 892C488 936 494 984 472 1036C340 994 226 994 116 1036C86 994 86 948 114 912Z" fill="url(#centerSweep)" opacity="0.7"/>
    <path d="M1698 1068C1770 1044 1846 1046 1922 1092C1944 1128 1948 1166 1932 1202C1842 1170 1766 1166 1688 1188C1666 1158 1668 1118 1698 1068Z" fill="#C6B5FF" opacity="0.66"/>
    <path d="M1524 1678C1602 1646 1688 1630 1780 1632" stroke="#FF6AAC" stroke-opacity="0.52" stroke-width="20" stroke-linecap="round"/>
    <path d="M102 1626C182 1584 268 1558 362 1548" stroke="#FF93C5" stroke-opacity="0.38" stroke-width="18" stroke-linecap="round"/>
    <path d="M1512 128C1560 120 1610 126 1660 148" stroke="#47DAC9" stroke-opacity="0.52" stroke-width="16" stroke-linecap="round"/>
  </g>

  <g opacity="0.9">
    <path d="M120 182C228 148 338 146 454 184" stroke="#0F0F0F" stroke-opacity="0.54" stroke-width="10" stroke-linecap="round"/>
    <path d="M1536 364C1650 330 1764 332 1874 382" stroke="#0F0F0F" stroke-opacity="0.56" stroke-width="10" stroke-linecap="round"/>
    <path d="M844 104C932 98 1022 102 1116 116" stroke="#0F0F0F" stroke-width="12" stroke-linecap="round"/>
    <path d="M840 140C936 132 1036 136 1140 154" stroke="#0F0F0F" stroke-opacity="0.56" stroke-width="6" stroke-linecap="round"/>
    <path d="M126 740C192 714 264 708 344 726" stroke="#0F0F0F" stroke-opacity="0.72" stroke-width="11" stroke-linecap="round"/>
    <path d="M164 782C238 760 304 758 370 778" stroke="#0F0F0F" stroke-opacity="0.42" stroke-width="6" stroke-linecap="round"/>
    <path d="M1546 780C1634 742 1720 738 1802 764" stroke="#0F0F0F" stroke-opacity="0.76" stroke-width="12" stroke-linecap="round"/>
    <path d="M1586 824C1664 798 1734 798 1798 820" stroke="#0F0F0F" stroke-opacity="0.44" stroke-width="6" stroke-linecap="round"/>
    <path d="M130 1860C232 1808 330 1784 432 1788" stroke="#0F0F0F" stroke-opacity="0.72" stroke-width="12" stroke-linecap="round"/>
    <path d="M1540 1848C1648 1804 1748 1788 1852 1804" stroke="#0F0F0F" stroke-opacity="0.74" stroke-width="12" stroke-linecap="round"/>
    <path d="M1508 1886C1606 1848 1700 1838 1790 1854" stroke="#0F0F0F" stroke-opacity="0.44" stroke-width="6" stroke-linecap="round"/>
    <path d="M158 1202C208 1182 260 1176 316 1184" stroke="#0F0F0F" stroke-opacity="0.4" stroke-width="5" stroke-linecap="round"/>
  </g>

  <g filter="url(#roughTight)">
    <path d="M1716 1800C1780 1764 1852 1748 1930 1750C1954 1788 1952 1828 1938 1868C1842 1848 1762 1848 1686 1868C1666 1842 1670 1810 1716 1800Z" fill="#CBBEFF" opacity="0.62"/>
    <path d="M1650 1750C1722 1718 1808 1706 1904 1714C1944 1730 1964 1760 1972 1800C1850 1778 1744 1780 1654 1814C1632 1792 1630 1770 1650 1750Z" fill="url(#violetDots)" opacity="0.34"/>
    <path d="M1684 1830C1770 1786 1854 1768 1938 1778" stroke="#FF83BE" stroke-opacity="0.32" stroke-width="18" stroke-linecap="round"/>
  </g>

  <g opacity="0.78">
    <rect x="800" y="94" width="56" height="18" rx="9" transform="rotate(-4 800 94)" fill="#49D8C5"/>
    <rect x="876" y="88" width="60" height="18" rx="9" transform="rotate(7 876 88)" fill="#FF59A9"/>
    <rect x="958" y="96" width="52" height="16" rx="8" transform="rotate(-8 958 96)" fill="#0F0F0F" opacity="0.65"/>
    <rect x="1500" y="1180" width="44" height="12" rx="6" transform="rotate(-17 1500 1180)" fill="#0F0F0F" opacity="0.66"/>
    <rect x="1714" y="1242" width="52" height="14" rx="7" transform="rotate(18 1714 1242)" fill="#FF59A9"/>
    <rect x="268" y="1040" width="42" height="12" rx="6" transform="rotate(18 268 1040)" fill="#49D8C5"/>
    <rect x="290" y="1720" width="54" height="16" rx="8" transform="rotate(-20 290 1720)" fill="#FF59A9"/>
    <rect x="1204" y="1826" width="60" height="16" rx="8" transform="rotate(10 1204 1826)" fill="url(#tealPinkBar)"/>
  </g>

  <g fill="#FFD15B" opacity="0.94">
    <path d="M1718 434L1730 468L1768 474L1740 496L1748 534L1718 514L1688 534L1696 496L1668 474L1706 468L1718 434Z"/>
    <path d="M1822 1330L1834 1360L1868 1364L1842 1386L1848 1422L1822 1406L1796 1422L1802 1386L1776 1364L1810 1360L1822 1330Z"/>
    <path d="M224 1360L236 1390L270 1394L244 1416L250 1452L224 1436L198 1452L204 1416L178 1394L212 1390L224 1360Z"/>
  </g>

  <g fill="#FF7AB5" opacity="0.78">
    <path d="M170 1116C180 1102 198 1100 212 1110C226 1100 244 1102 254 1116C264 1130 260 1150 244 1162L212 1188L180 1162C164 1150 160 1130 170 1116Z"/>
    <path d="M1280 1772C1290 1758 1308 1756 1322 1766C1336 1756 1354 1758 1364 1772C1374 1786 1370 1806 1354 1818L1322 1844L1290 1818C1274 1806 1270 1786 1280 1772Z"/>
  </g>

  <g fill="#0F0F0F" opacity="0.64">
    <circle cx="115" cy="160" r="4"/>
    <circle cx="1824" cy="230" r="4"/>
    <circle cx="168" cy="1460" r="4"/>
    <circle cx="1828" cy="1544" r="4"/>
    <circle cx="1718" cy="360" r="4"/>
    <circle cx="1766" cy="1730" r="3"/>
    <circle cx="328" cy="1776" r="3"/>
  </g>

  <rect width="2000" height="2000" fill="url(#printScratch)" opacity="0.22"/>
</svg>
