<svg width="2000" height="2000" viewBox="0 0 2000 2000" fill="none" xmlns="http://www.w3.org/2000/svg">
  <defs>
    <pattern id="dotsLarge" patternUnits="userSpaceOnUse" width="34" height="34">
      <circle cx="8" cy="8" r="4" fill="#281818" opacity="0.20"/>
      <circle cx="24" cy="18" r="3" fill="#281818" opacity="0.12"/>
      <circle cx="14" cy="28" r="2.2" fill="#281818" opacity="0.16"/>
    </pattern>
    <pattern id="dotsPink" patternUnits="userSpaceOnUse" width="28" height="28">
      <circle cx="7" cy="7" r="3.2" fill="#98244F" opacity="0.16"/>
      <circle cx="20" cy="15" r="2.2" fill="#98244F" opacity="0.12"/>
      <circle cx="12" cy="22" r="1.6" fill="#98244F" opacity="0.12"/>
    </pattern>
    <pattern id="dotsTeal" patternUnits="userSpaceOnUse" width="30" height="30">
      <circle cx="8" cy="8" r="3.1" fill="#0F5751" opacity="0.15"/>
      <circle cx="21" cy="16" r="2.1" fill="#0F5751" opacity="0.10"/>
      <circle cx="13" cy="25" r="1.6" fill="#0F5751" opacity="0.11"/>
    </pattern>
    <pattern id="dotsYellow" patternUnits="userSpaceOnUse" width="28" height="28">
      <circle cx="7" cy="8" r="3.1" fill="#7E5300" opacity="0.14"/>
      <circle cx="20" cy="15" r="2.1" fill="#7E5300" opacity="0.10"/>
      <circle cx="12" cy="24" r="1.6" fill="#7E5300" opacity="0.1"/>
    </pattern>
    <radialGradient id="fade" cx="0" cy="0" r="1" gradientUnits="userSpaceOnUse" gradientTransform="translate(1000 1000) rotate(90) scale(1000)">
      <stop stop-color="white"/>
      <stop offset="1" stop-color="white" stop-opacity="0"/>
    </radialGradient>
  </defs>

  <g opacity="0.9">
    <path d="M-38 84C162 -14 376 -4 530 86C650 156 728 284 748 430C596 354 432 330 236 340C102 346 -24 376 -144 430L-38 84Z" fill="url(#dotsPink)"/>
    <path d="M1460 54C1626 18 1810 40 1982 148V430C1848 330 1712 274 1552 250C1484 204 1454 136 1460 54Z" fill="url(#dotsLarge)"/>
    <path d="M-68 1458C104 1328 300 1252 530 1248C654 1298 748 1410 800 1572C600 1504 406 1498 196 1552C90 1580 -12 1624 -110 1702L-68 1458Z" fill="url(#dotsTeal)"/>
    <path d="M1464 1450C1624 1412 1806 1416 1978 1478V1912H1538C1468 1844 1416 1744 1386 1612C1398 1534 1428 1480 1464 1450Z" fill="url(#dotsYellow)"/>
  </g>

  <g opacity="0.5">
    <ellipse cx="250" cy="1014" rx="154" ry="108" fill="url(#dotsLarge)"/>
    <ellipse cx="1744" cy="1100" rx="128" ry="92" fill="url(#dotsPink)"/>
    <ellipse cx="1002" cy="116" rx="206" ry="42" fill="url(#dotsLarge)"/>
    <ellipse cx="1264" cy="1826" rx="142" ry="52" fill="url(#dotsTeal)"/>
  </g>

  <rect width="2000" height="2000" fill="url(#fade)" opacity="0.08"/>
</svg>
