<svg xmlns="http://www.w3.org/2000/svg" width="360" height="540" viewBox="0 0 360 540">
  <defs>
    <linearGradient id="bg" x1="0%" y1="0%" x2="100%" y2="100%">
      <stop offset="0%" stop-color="#f9d85f"/>
      <stop offset="100%" stop-color="#f4b14f"/>
    </linearGradient>
    <pattern id="foil" width="140" height="60" patternUnits="userSpaceOnUse" patternTransform="rotate(-12)">
      <rect width="140" height="60" fill="#e64045"/>
      <text x="10" y="40" font-family="Bebas Neue, Impact, sans-serif" font-size="46" font-weight="800" fill="#ffefc9" letter-spacing="4">STREAK</text>
    </pattern>
    <pattern id="hatch" width="18" height="18" patternUnits="userSpaceOnUse" patternTransform="rotate(-24)">
      <rect width="18" height="18" fill="none"/>
      <rect x="-3" width="9" height="18" fill="#e64045" fill-opacity="0.7"/>
    </pattern>
    <linearGradient id="neo" x1="0%" y1="0%" x2="0%" y2="100%">
      <stop offset="0%" stop-color="#5c3cf3" stop-opacity="0.9"/>
      <stop offset="100%" stop-color="#1fb8b2" stop-opacity="0.9"/>
    </linearGradient>
  </defs>
  <rect width="360" height="540" rx="30" fill="url(#bg)"/>
  <rect width="360" height="540" rx="30" fill="url(#hatch)" opacity="0.55"/>
  <path d="M-40 240 L410 60 L430 150 L-20 330 Z" fill="url(#foil)" opacity="0.98"/>
  <path d="M-60 360 L390 180 L410 260 L-40 440 Z" fill="url(#foil)" opacity="0.98"/>
  <path d="M-50 480 L380 300 L400 360 L-30 520 Z" fill="#e64045" opacity="0.35"/>
  <g transform="translate(80 110)">
    <path d="M120 36 C176 32 218 74 228 134 C238 194 206 268 160 288 C114 308 62 278 44 228 C26 178 34 110 86 64 C98 54 110 42 120 36Z" fill="#5c3cf3" stroke="#15111c" stroke-width="10"/>
    <path d="M144 118 Q176 98 204 118 Q194 148 178 162" fill="#1fb8b2" stroke="#15111c" stroke-width="8"/>
    <path d="M94 190 Q124 172 152 190" fill="none" stroke="#15111c" stroke-width="10" stroke-linecap="round"/>
    <circle cx="128" cy="122" r="12" fill="#ffefc9" stroke="#15111c" stroke-width="8"/>
    <circle cx="166" cy="122" r="11" fill="#ffefc9" stroke="#15111c" stroke-width="7"/>
  </g>
  <path d="M40 130 Q180 40 320 130" fill="none" stroke="#1fb8b2" stroke-width="10" stroke-linecap="round" opacity="0.8"/>
  <path d="M50 430 Q180 500 310 430" fill="none" stroke="#1fb8b2" stroke-width="12" stroke-linecap="round" opacity="0.82"/>
  <rect x="12" y="12" width="336" height="516" rx="26" fill="none" stroke="#15111c" stroke-width="12"/>
</svg>
