<svg xmlns="http://www.w3.org/2000/svg" width="360" height="540" viewBox="0 0 360 540">
  <defs>
    <linearGradient id="bg" x1="0%" y1="0%" x2="100%" y2="0%">
      <stop offset="0%" stop-color="#0f172a"/>
      <stop offset="100%" stop-color="#1b2850"/>
    </linearGradient>
    <pattern id="grid" width="28" height="28" patternUnits="userSpaceOnUse">
      <path d="M0 0H28V28H0Z" fill="none" stroke="#5c3cf3" stroke-width="2" opacity="0.35"/>
      <path d="M0 0L28 28" stroke="#e64045" stroke-width="2" opacity="0.3"/>
      <path d="M28 0L0 28" stroke="#e64045" stroke-width="2" opacity="0.3"/>
    </pattern>
    <radialGradient id="glow" cx="50%" cy="50%" r="60%">
      <stop offset="0%" stop-color="#1fb8b2" stop-opacity="0.6"/>
      <stop offset="100%" stop-color="#1fb8b2" stop-opacity="0"/>
    </radialGradient>
  </defs>
  <rect width="360" height="540" rx="30" fill="url(#bg)"/>
  <rect width="360" height="540" rx="30" fill="url(#grid)"/>
  <circle cx="180" cy="270" r="180" fill="url(#glow)" opacity="0.5"/>
  <g transform="translate(70 90)">
    <path d="M140 46 C184 46 218 84 222 142 C226 200 196 262 156 282 C116 302 62 276 46 230 C30 184 42 118 90 78 C108 62 126 46 140 46Z" fill="#5c3cf3" stroke="#e64045" stroke-width="10"/>
    <rect x="88" y="96" width="104" height="44" rx="10" fill="#0f172a" stroke="#1fb8b2" stroke-width="8"/>
    <rect x="110" y="110" width="60" height="18" rx="6" fill="#1fb8b2"/>
    <path d="M100 180 Q140 162 180 180" fill="none" stroke="#e64045" stroke-width="10" stroke-linecap="round"/>
    <circle cx="140" cy="210" r="12" fill="#ffefc9" stroke="#e64045" stroke-width="8"/>
  </g>
  <rect x="12" y="12" width="336" height="516" rx="26" fill="none" stroke="#1fb8b2" stroke-width="10"/>
</svg>
