<svg xmlns="http://www.w3.org/2000/svg" width="360" height="540" viewBox="0 0 360 540">
  <defs>
    <linearGradient id="bg" x1="0%" y1="0%" x2="100%" y2="100%">
      <stop offset="0%" stop-color="#0b1026"/>
      <stop offset="100%" stop-color="#111a38"/>
    </linearGradient>
    <pattern id="cross" width="28" height="28" patternUnits="userSpaceOnUse">
      <path d="M14 0L14 28M0 14L28 14" stroke="#f4d04f" stroke-width="3" opacity="0.9"/>
      <circle cx="14" cy="14" r="2" fill="#e5263f"/>
    </pattern>
    <radialGradient id="glow" cx="50%" cy="35%" r="70%">
      <stop offset="0%" stop-color="#1fb8b2" stop-opacity="0.6"/>
      <stop offset="100%" stop-color="#1fb8b2" stop-opacity="0"/>
    </radialGradient>
  </defs>
  <rect width="360" height="540" rx="30" fill="url(#bg)"/>
  <rect width="360" height="540" rx="30" fill="url(#cross)" opacity="0.35"/>
  <circle cx="180" cy="180" r="180" fill="url(#glow)"/>
  <g transform="translate(70 120)">
    <path d="M140 40 C188 44 218 96 210 160 C202 224 156 290 114 290 C72 290 24 232 30 172 C36 112 92 36 140 40Z" fill="#5c3cf3" stroke="#1fb8b2" stroke-width="10"/>
    <path d="M96 130 L188 130" stroke="#e5263f" stroke-width="12" stroke-linecap="round"/>
    <path d="M120 184 Q150 168 180 184" stroke="#f4d04f" stroke-width="10" stroke-linecap="round" fill="none"/>
    <rect x="106" y="94" width="68" height="26" rx="8" fill="#0b1026" stroke="#1fb8b2" stroke-width="6"/>
    <circle cx="140" cy="220" r="16" fill="#e5263f" stroke="#f4d04f" stroke-width="8"/>
  </g>
  <rect x="12" y="12" width="336" height="516" rx="26" fill="none" stroke="#1fb8b2" stroke-width="10"/>
</svg>
